<svg id="Layer_3" enable-background="new 0 0 64 64" height="512" viewBox="0 0 64 64" width="512" xmlns="http://www.w3.org/2000/svg"><g><path d="m62 44v18h-32v-24h12l6 6z" fill="#f7d881"/><path d="m30 58h32v4h-32z" fill="#f2c351"/><path d="m48 44h-18v-6h12z" fill="#f2c351"/><path d="m57 44h-9l-6-6h-7v-6h16l6 6z" fill="#e7e4dd"/><path d="m51 32v6h6" fill="#c1c8d1"/><path d="m24 8v24h-22v-30h16z" fill="#e7e4dd"/><path d="m18 2v6h6" fill="#c1c8d1"/><g><path d="m5 4.999h10v1.999h-10z" fill="#a8b0bc"/></g><g><path d="m5 10.999h16v1.999h-16z" fill="#a8b0bc"/></g><g><path d="m5 14.999h16v1.999h-16z" fill="#a8b0bc"/></g><g><path d="m5 18.999h16v1.999h-16z" fill="#a8b0bc"/></g><path d="m26 50h-11v-8h3l-5-6-5 6h3v12h15z" fill="#e47c6e"/><path d="m42 28v-11h-8v3l-6-5 6-5v3h12v15z" fill="#e47c6e"/><g><path d="m24.707 32.706c.188-.187.293-.442.293-.708v-24c0-.265-.105-.52-.292-.707l-6-6c-.188-.188-.442-.292-.708-.292h-16c-.553 0-1 .447-1 1v29.999c0 .553.447 1 1 1h22c.265 0 .52-.104.707-.292zm-5.707-28.293 2.586 2.586h-2.586zm-16 26.585v-27.999h14v5c0 .553.447 1 1 1h5v21.999z"/><path d="m5 4.999h10v1.999h-10z"/><path d="m5 10.999h16v1.999h-16z"/><path d="m5 14.999h16v1.999h-16z"/><path d="m5 19h16v1.999h-16z"/><path d="m62.999 43.999c0-.552-.447-.999-1-.999h-4v-5.001c0-.266-.105-.521-.292-.708l-6-6c-.188-.188-.442-.293-.708-.292l-15.999.001c-.552 0-1 .447-1 1v5h-4c-.553 0-1 .447-1 1v23.998c0 .553.447 1 1 1h32c.266 0 .52-.104.708-.292s.292-.442.292-.708zm-1.999 13h-30v-12.001h16.989c.003 0 .006.002.01.002h13v11.999zm-9-22.585 2.585 2.585h-2.585zm-16-1.415h14v5c0 .553.447 1 1 1h5v4.001h-7.585l-5.707-5.708c-.189-.188-.443-.292-.709-.292h-5.999zm5.585 6.001 3.999 3.999h-14.584v-3.999zm-10.585 21.998v-2h30v2z"/><path d="m26 48.998h-10v-5.999h2c.388 0 .741-.225.906-.576s.111-.767-.137-1.064l-5-6c-.379-.457-1.156-.456-1.537 0l-5 6c-.249.298-.302.713-.137 1.064s.517.576.905.576h2v11.001c0 .552.447 1 1 1h15c.553 0 1-.448 1-1v-4.002c0-.552-.448-1-1-1zm-1 4.002h-13v-11.001c0-.553-.448-1-1-1h-.865l2.865-3.438 2.865 3.438h-.865c-.553 0-1 .447-1 1v7.999c0 .553.447 1 1 1h10z"/><path d="m34.424 20.905c.351-.165.576-.517.576-.905v-2.001h6v9.999c0 .553.448 1 1 1h4c.266 0 .52-.104.708-.292s.292-.442.292-.708v-15c0-.265-.105-.52-.292-.707-.188-.188-.442-.293-.708-.292h-11v-1.999c0-.389-.224-.741-.576-.906-.35-.163-.766-.111-1.064.138l-6 5c-.229.189-.36.471-.36.768 0 .296.131.578.359.768l6 5c.299.25.715.303 1.065.137zm-1.424-3.905v.864l-3.438-2.865 3.438-2.864v.865c0 .265.105.52.293.707.187.188.441.293.707.293l11-.001v12.999h-2v-9.999c0-.266-.105-.521-.292-.708-.188-.188-.442-.293-.708-.292l-8 .001c-.553 0-1 .447-1 1z"/></g></g></svg>