<?xml version="1.0" encoding="UTF-8"?>
<!-- Generator: Adobe Illustrator 19.2.0, SVG Export Plug-In . SVG Version: 6.00 Build 0)  -->
<svg version="1.1" id="Layer_1" xmlns="http://www.w3.org/2000/svg" xmlns:xlink="http://www.w3.org/1999/xlink" x="0px" y="0px" viewBox="0 0 960 960" style="enable-background:new 0 0 960 960;" xml:space="preserve">
<style type="text/css">
	.st0{fill:#0076AE;}
	.st1{fill:#0B4A70;}
	.st2{fill:#8B523E;}
	.st3{fill:none;stroke:#A26E3D;stroke-width:39.7858;stroke-miterlimit:10;}
	.st4{fill:none;stroke:#A26E3D;stroke-width:39.7858;stroke-linecap:round;stroke-miterlimit:10;}
	.st5{fill:#A26E3D;}
</style>
<g id="Layer_1_1_">
	<g>
		<g>
			<path class="st0" d="M372.5,247.8c-25.8,24.4-28.9,71.1-12.2,124.1l67.7-52.1L372.5,247.8z"/>
			<path class="st0" d="M418.6,480.4c0.4,0.5,0.8,1,1.2,1.5l83.5-64.4L435.1,329l-70.9,54.6C375.8,415.3,394.1,448.6,418.6,480.4z"/>
			<path class="st0" d="M512.6,410.4l83.5-64.4c-0.4-0.5-0.8-1-1.2-1.5c-24.5-31.8-52.1-58-79.7-77.2l-70.9,54.6L512.6,410.4z"/>
			<path class="st0" d="M409.3,487.6c-23.9-31-42.5-64-54.7-96.5L289.9,441c4.8,37.1,19.1,73.4,43.6,105.1c0.4,0.5,0.8,1,1.2,1.5     l75.8-58.4C410.1,488.6,409.7,488.1,409.3,487.6z"/>
			<path class="st0" d="M381.8,240.6l55.4,71.9l67.7-52.1C457.9,230.7,411.9,221.8,381.8,240.6z"/>
			<path class="st0" d="M350.4,379.4c-4.2-12.8-7.4-25.5-9.5-37.8c-5.2-31.6-2.7-58.8,7.1-79.5c-43,45.2-63.5,105.5-59.6,165.1     L350.4,379.4z"/>
			<g>
				<path class="st1" d="M631.8,584.3l-49.7-64.5l-64.7,49.9C561.3,595.1,603.5,601.9,631.8,584.3z"/>
				<path class="st1" d="M574.9,510.5l-64.4-83.6l-83.3,64.2c24.8,30,52.2,54.5,79.5,72L574.9,510.5z"/>
				<path class="st1" d="M417.8,498.3l-75.7,58.3c25.6,29.3,57.5,50.2,92.2,62.2l62.5-48.2C469,552.3,441.9,527.6,417.8,498.3z"/>
				<path class="st1" d="M688.2,289.9l-75.7,58.3c22.2,30.8,39.2,63.2,49.9,94.8l62.5-48.2C722,358.3,710,322.1,688.2,289.9z"/>
				<path class="st1" d="M533.1,590.8c-8.6-3.8-17.1-8.4-25.6-13.5L448,623.2c53.8,14.9,112.7,9.1,163.8-19      C589.2,608.4,562.3,604,533.1,590.8z"/>
				<path class="st1" d="M656.2,462.7l-64.7,49.9l49.7,64.5C665.4,554.2,669.6,511.6,656.2,462.7z"/>
				<path class="st1" d="M666.2,455c2.8,9.5,5,19,6.5,28.2c5.2,31.6,2.7,58.8-7.1,79.5c40.2-42.3,60.8-97.8,60.1-153.5L666.2,455z"/>
				<path class="st1" d="M603.2,355.4l-83.3,64.2l64.4,83.6l68.3-52.7C642.6,419.8,625.9,387.1,603.2,355.4z"/>
			</g>
			<path class="st0" d="M589.6,209.9l-64.7,49.9c28.3,20.1,55.5,46.5,79.4,77.5c0.4,0.5,0.8,1,1.2,1.5l75.8-58.4     c-0.4-0.5-0.7-1-1.1-1.6C655.7,247.1,624.3,224,589.6,209.9z"/>
			<path class="st0" d="M480.5,234c11.4,5.1,22.9,11.4,34.2,18.8l62-47.8c-56.7-18.9-120.2-14.4-174.8,15.6     C424.4,216.5,451.3,220.9,480.5,234z"/>
		</g>
		<polygon class="st2" points="571.2,741.6 459.8,741.6 481.1,691.5 553.6,691.5   "/>
		<path class="st3" d="M677.8,626.3c-120.4,92.8-293.3,70.4-386.1-50s-70.4-293.3,50-386.1"/>
		<line class="st4" x1="666.4" y1="611.5" x2="690.3" y2="642.5"/>
		<line class="st4" x1="329.7" y1="174.6" x2="353.6" y2="205.7"/>
		<path class="st5" d="M647.7,785.4H380.5v-2.8c0-22.6,18.3-40.9,40.9-40.9h185.4c22.6,0,40.9,18.3,40.9,40.9V785.4z"/>
	</g>
</g>
</svg>